<svg width="418" height="54" viewBox="0 0 418 54" fill="none" xmlns="http://www.w3.org/2000/svg">
    <mask id="path-1-outside-1" maskUnits="userSpaceOnUse" x="0" y="0" width="418" height="30" fill="black">
    <rect fill="white" width="418" height="30"/>
    <path d="M15.3137 18.1782H8.96681V28.0981H1V1H15.3668C19.9344 1 23.4575 1.71343 25.9361 3.1403C28.4147 4.56717 29.6539 6.58339 29.6539 9.18897C29.6539 11.0377 29.0786 12.5824 27.9278 13.8232C26.7947 15.0515 25.0686 16.0317 22.7494 16.7638L31.1145 27.8375V28.0981H22.5635L15.3137 18.1782ZM8.96681 13.6557H15.3934C17.3939 13.6557 18.943 13.3021 20.0407 12.5948C21.1383 11.8752 21.6871 10.8888 21.6871 9.63565C21.6871 8.35767 21.1649 7.35266 20.1203 6.62061C19.0935 5.88857 17.509 5.52255 15.3668 5.52255H8.96681V13.6557Z"/>
    <path d="M58.9983 16.3543H43.7021V23.6127H61.6539V28.0981H35.7353V1H61.6008V5.52255H43.7021V11.9807H58.9983V16.3543Z"/>
    <path d="M88.1569 22.5147H74.1884L71.5328 28.0981H63.0614L77.4548 1H84.8373L99.3104 28.0981H90.839L88.1569 22.5147ZM76.3394 17.9921H86.0058L81.1461 7.84896L76.3394 17.9921Z"/>
    <path d="M111.367 23.6127H130.859V28.0981H101.408V24.8225L120.529 5.52255H101.435V1H130.434V4.20114L111.367 23.6127Z"/>
    <path d="M171.277 22.5147H157.309L154.653 28.0981H146.182L160.575 1H167.958L182.431 28.0981H173.959L171.277 22.5147ZM159.46 17.9921H169.126L164.266 7.84896L159.46 17.9921Z"/>
    <path d="M217.511 28.0981H209.544V16.4846H194.009V28.0981H186.042V1H194.009V11.9807H209.544V1H217.511V28.0981Z"/>
    <path d="M246.803 22.5147H232.834L230.178 28.0981H221.707L236.1 1H243.483L257.956 28.0981H249.485L246.803 22.5147ZM234.985 17.9921H244.651L239.792 7.84896L234.985 17.9921Z"/>
    <path d="M271.978 1L281.91 20.6535L291.788 1H302.251V28.0981H294.258V20.6908L295.055 7.90479L284.618 28.0981H279.148L268.738 7.92341L269.534 20.6908V28.0981H261.568V1H271.978Z"/>
    <path d="M319.619 1L329.551 20.6535L339.43 1H349.893V28.0981H341.9V20.6908L342.696 7.90479L332.26 28.0981H326.789L316.379 7.92341L317.176 20.6908V28.0981H309.209V1H319.619Z"/>
    <path d="M380.114 16.3543H364.817V23.6127H382.769V28.0981H356.851V1H382.716V5.52255H364.817V11.9807H380.114V16.3543Z"/>
    <path d="M387.443 28.0981V1H399.34C402.739 1 405.776 1.53973 408.449 2.61918C411.14 3.68623 413.238 5.21236 414.743 7.19757C416.248 9.17036 417 11.4161 417 13.9349V15.1818C417 17.7005 416.256 19.9401 414.769 21.9005C413.3 23.8609 411.22 25.3808 408.529 26.4603C405.838 27.5397 402.801 28.0857 399.42 28.0981H387.443ZM395.41 5.52255V23.6127H399.261C402.377 23.6127 404.758 22.8993 406.404 21.4724C408.051 20.0456 408.892 18.0045 408.927 15.3493V13.9162C408.927 11.1618 408.113 9.07731 406.484 7.66285C404.855 6.23598 402.474 5.52255 399.34 5.52255H395.41Z"/>
    </mask>
    <path d="M15.3137 18.1782H8.96681V28.0981H1V1H15.3668C19.9344 1 23.4575 1.71343 25.9361 3.1403C28.4147 4.56717 29.6539 6.58339 29.6539 9.18897C29.6539 11.0377 29.0786 12.5824 27.9278 13.8232C26.7947 15.0515 25.0686 16.0317 22.7494 16.7638L31.1145 27.8375V28.0981H22.5635L15.3137 18.1782ZM8.96681 13.6557H15.3934C17.3939 13.6557 18.943 13.3021 20.0407 12.5948C21.1383 11.8752 21.6871 10.8888 21.6871 9.63565C21.6871 8.35767 21.1649 7.35266 20.1203 6.62061C19.0935 5.88857 17.509 5.52255 15.3668 5.52255H8.96681V13.6557Z" fill="#929292"/>
    <path d="M58.9983 16.3543H43.7021V23.6127H61.6539V28.0981H35.7353V1H61.6008V5.52255H43.7021V11.9807H58.9983V16.3543Z" fill="#929292"/>
    <path d="M88.1569 22.5147H74.1884L71.5328 28.0981H63.0614L77.4548 1H84.8373L99.3104 28.0981H90.839L88.1569 22.5147ZM76.3394 17.9921H86.0058L81.1461 7.84896L76.3394 17.9921Z" fill="#929292"/>
    <path d="M111.367 23.6127H130.859V28.0981H101.408V24.8225L120.529 5.52255H101.435V1H130.434V4.20114L111.367 23.6127Z" fill="#929292"/>
    <path d="M171.277 22.5147H157.309L154.653 28.0981H146.182L160.575 1H167.958L182.431 28.0981H173.959L171.277 22.5147ZM159.46 17.9921H169.126L164.266 7.84896L159.46 17.9921Z" fill="#929292"/>
    <path d="M217.511 28.0981H209.544V16.4846H194.009V28.0981H186.042V1H194.009V11.9807H209.544V1H217.511V28.0981Z" fill="#929292"/>
    <path d="M246.803 22.5147H232.834L230.178 28.0981H221.707L236.1 1H243.483L257.956 28.0981H249.485L246.803 22.5147ZM234.985 17.9921H244.651L239.792 7.84896L234.985 17.9921Z" fill="#929292"/>
    <path d="M271.978 1L281.91 20.6535L291.788 1H302.251V28.0981H294.258V20.6908L295.055 7.90479L284.618 28.0981H279.148L268.738 7.92341L269.534 20.6908V28.0981H261.568V1H271.978Z" fill="#929292"/>
    <path d="M319.619 1L329.551 20.6535L339.43 1H349.893V28.0981H341.9V20.6908L342.696 7.90479L332.26 28.0981H326.789L316.379 7.92341L317.176 20.6908V28.0981H309.209V1H319.619Z" fill="#929292"/>
    <path d="M380.114 16.3543H364.817V23.6127H382.769V28.0981H356.851V1H382.716V5.52255H364.817V11.9807H380.114V16.3543Z" fill="#929292"/>
    <path d="M387.443 28.0981V1H399.34C402.739 1 405.776 1.53973 408.449 2.61918C411.14 3.68623 413.238 5.21236 414.743 7.19757C416.248 9.17036 417 11.4161 417 13.9349V15.1818C417 17.7005 416.256 19.9401 414.769 21.9005C413.3 23.8609 411.22 25.3808 408.529 26.4603C405.838 27.5397 402.801 28.0857 399.42 28.0981H387.443ZM395.41 5.52255V23.6127H399.261C402.377 23.6127 404.758 22.8993 406.404 21.4724C408.051 20.0456 408.892 18.0045 408.927 15.3493V13.9162C408.927 11.1618 408.113 9.07731 406.484 7.66285C404.855 6.23598 402.474 5.52255 399.34 5.52255H395.41Z" fill="#929292"/>
    <path d="M15.3137 18.1782H8.96681V28.0981H1V1H15.3668C19.9344 1 23.4575 1.71343 25.9361 3.1403C28.4147 4.56717 29.6539 6.58339 29.6539 9.18897C29.6539 11.0377 29.0786 12.5824 27.9278 13.8232C26.7947 15.0515 25.0686 16.0317 22.7494 16.7638L31.1145 27.8375V28.0981H22.5635L15.3137 18.1782ZM8.96681 13.6557H15.3934C17.3939 13.6557 18.943 13.3021 20.0407 12.5948C21.1383 11.8752 21.6871 10.8888 21.6871 9.63565C21.6871 8.35767 21.1649 7.35266 20.1203 6.62061C19.0935 5.88857 17.509 5.52255 15.3668 5.52255H8.96681V13.6557Z" stroke="black" stroke-width="2" mask="url(#path-1-outside-1)"/>
    <path d="M58.9983 16.3543H43.7021V23.6127H61.6539V28.0981H35.7353V1H61.6008V5.52255H43.7021V11.9807H58.9983V16.3543Z" stroke="black" stroke-width="2" mask="url(#path-1-outside-1)"/>
    <path d="M88.1569 22.5147H74.1884L71.5328 28.0981H63.0614L77.4548 1H84.8373L99.3104 28.0981H90.839L88.1569 22.5147ZM76.3394 17.9921H86.0058L81.1461 7.84896L76.3394 17.9921Z" stroke="black" stroke-width="2" mask="url(#path-1-outside-1)"/>
    <path d="M111.367 23.6127H130.859V28.0981H101.408V24.8225L120.529 5.52255H101.435V1H130.434V4.20114L111.367 23.6127Z" stroke="black" stroke-width="2" mask="url(#path-1-outside-1)"/>
    <path d="M171.277 22.5147H157.309L154.653 28.0981H146.182L160.575 1H167.958L182.431 28.0981H173.959L171.277 22.5147ZM159.46 17.9921H169.126L164.266 7.84896L159.46 17.9921Z" stroke="black" stroke-width="2" mask="url(#path-1-outside-1)"/>
    <path d="M217.511 28.0981H209.544V16.4846H194.009V28.0981H186.042V1H194.009V11.9807H209.544V1H217.511V28.0981Z" stroke="black" stroke-width="2" mask="url(#path-1-outside-1)"/>
    <path d="M246.803 22.5147H232.834L230.178 28.0981H221.707L236.1 1H243.483L257.956 28.0981H249.485L246.803 22.5147ZM234.985 17.9921H244.651L239.792 7.84896L234.985 17.9921Z" stroke="black" stroke-width="2" mask="url(#path-1-outside-1)"/>
    <path d="M271.978 1L281.91 20.6535L291.788 1H302.251V28.0981H294.258V20.6908L295.055 7.90479L284.618 28.0981H279.148L268.738 7.92341L269.534 20.6908V28.0981H261.568V1H271.978Z" stroke="black" stroke-width="2" mask="url(#path-1-outside-1)"/>
    <path d="M319.619 1L329.551 20.6535L339.43 1H349.893V28.0981H341.9V20.6908L342.696 7.90479L332.26 28.0981H326.789L316.379 7.92341L317.176 20.6908V28.0981H309.209V1H319.619Z" stroke="black" stroke-width="2" mask="url(#path-1-outside-1)"/>
    <path d="M380.114 16.3543H364.817V23.6127H382.769V28.0981H356.851V1H382.716V5.52255H364.817V11.9807H380.114V16.3543Z" stroke="black" stroke-width="2" mask="url(#path-1-outside-1)"/>
    <path d="M387.443 28.0981V1H399.34C402.739 1 405.776 1.53973 408.449 2.61918C411.14 3.68623 413.238 5.21236 414.743 7.19757C416.248 9.17036 417 11.4161 417 13.9349V15.1818C417 17.7005 416.256 19.9401 414.769 21.9005C413.3 23.8609 411.22 25.3808 408.529 26.4603C405.838 27.5397 402.801 28.0857 399.42 28.0981H387.443ZM395.41 5.52255V23.6127H399.261C402.377 23.6127 404.758 22.8993 406.404 21.4724C408.051 20.0456 408.892 18.0045 408.927 15.3493V13.9162C408.927 11.1618 408.113 9.07731 406.484 7.66285C404.855 6.23598 402.474 5.52255 399.34 5.52255H395.41Z" stroke="black" stroke-width="2" mask="url(#path-1-outside-1)"/>
    <path d="M12.7873 48.7365H5.3778V53.8412H3.04944V42.2822H13.9879V43.5365H5.3778V47.4901H12.7873V48.7365Z" fill="#929292"/>
    <path d="M29.4132 49.1652H25.2659V53.8412H22.9254V42.2822H28.7705C30.7593 42.2822 32.2873 42.5786 33.3545 43.1714C34.4297 43.7641 34.9674 44.6268 34.9674 45.7594C34.9674 46.4792 34.6682 47.1064 34.07 47.641C33.4798 48.1755 32.6552 48.5751 31.5961 48.8397L35.7435 53.746V53.8412H33.2453L29.4132 49.1652ZM25.2659 47.9188H28.8433C29.9994 47.9188 30.917 47.723 31.5961 47.3313C32.2833 46.9397 32.6269 46.4157 32.6269 45.7594C32.6269 45.0449 32.2994 44.4972 31.6446 44.1161C30.9978 43.735 30.06 43.5418 28.8312 43.5365H25.2659V47.9188Z" fill="#929292"/>
    <path d="M57.9841 48.4348C57.9841 49.5675 57.6931 50.5572 57.111 51.404C56.5289 52.2455 55.7043 52.8886 54.6371 53.3331C53.57 53.7777 52.3249 54 50.9021 54C49.5115 54 48.2786 53.7777 47.2034 53.3331C46.1281 52.8833 45.2914 52.2455 44.6931 51.4199C44.1029 50.5889 43.7998 49.6283 43.7836 48.538V47.7045C43.7836 46.593 44.0787 45.6112 44.6688 44.7591C45.259 43.907 46.0917 43.256 47.167 42.8062C48.2503 42.351 49.4873 42.1234 50.8778 42.1234C52.2926 42.1234 53.5376 42.3484 54.6129 42.7982C55.6962 43.2428 56.5289 43.8912 57.111 44.7433C57.6931 45.5901 57.9841 46.5771 57.9841 47.7045V48.4348ZM55.6679 47.6886C55.6679 46.3178 55.2475 45.2672 54.4067 44.5368C53.5659 43.8012 52.3896 43.4333 50.8778 43.4333C49.4064 43.4333 48.2463 43.8012 47.3974 44.5368C46.5566 45.2672 46.1241 46.2834 46.0998 47.5854V48.4348C46.0998 49.7633 46.5243 50.8086 47.3731 51.5707C48.2301 52.3275 49.4064 52.706 50.9021 52.706C52.4058 52.706 53.57 52.3487 54.3946 51.6342C55.2192 50.9144 55.6437 49.885 55.6679 48.546V47.6886Z" fill="#929292"/>
    <path d="M81.2071 53.8412H78.8666L69.9776 44.9338V53.8412H67.6371V42.2822H69.9776L78.8909 51.2293V42.2822H81.2071V53.8412Z" fill="#929292"/>
    <path d="M103.217 43.5365H97.542V53.8412H95.2257V43.5365H89.5625V42.2822H103.217V43.5365Z" fill="#929292"/>
    <path d="M121.493 48.4984H113.84V52.5948H122.729V53.8412H111.512V42.2822H122.608V43.5365H113.84V47.2519H121.493V48.4984Z" fill="#929292"/>
    <path d="M145.358 53.8412H143.018L134.129 44.9338V53.8412H131.788V42.2822H134.129L143.042 51.2293V42.2822H145.358V53.8412Z" fill="#929292"/>
    <path d="M155.654 53.8412V42.2822H160.638C162.174 42.2822 163.532 42.5045 164.713 42.9491C165.893 43.3937 166.803 44.0261 167.441 44.8465C168.088 45.6668 168.415 46.6089 168.424 47.6727V48.411C168.424 49.5013 168.1 50.4566 167.453 51.277C166.815 52.0973 165.897 52.7271 164.701 53.1664C163.512 53.6057 162.126 53.8306 160.541 53.8412H155.654ZM157.982 43.5365V52.5948H160.432C162.227 52.5948 163.621 52.2296 164.616 51.4993C165.618 50.7689 166.119 49.7289 166.119 48.3793V47.7045C166.119 46.3919 165.646 45.3731 164.701 44.648C163.763 43.9176 162.429 43.5471 160.699 43.5365H157.982Z" fill="#929292"/>
    <path d="M233.557 53.8412V42.2822H238.541C240.077 42.2822 241.435 42.5045 242.616 42.9491C243.796 43.3937 244.706 44.0261 245.344 44.8465C245.991 45.6668 246.318 46.6089 246.327 47.6727V48.411C246.327 49.5013 246.003 50.4566 245.356 51.277C244.718 52.0973 243.8 52.7271 242.604 53.1664C241.415 53.6057 240.029 53.8306 238.444 53.8412H233.557ZM235.885 43.5365V52.5948H238.335C240.13 52.5948 241.524 52.2296 242.519 51.4993C243.521 50.7689 244.022 49.7289 244.022 48.3793V47.7045C244.022 46.3919 243.549 45.3731 242.604 44.648C241.666 43.9176 240.332 43.5471 238.602 43.5365H235.885Z" fill="#929292"/>
    <path d="M265.996 48.4984H258.344V52.5948H267.233V53.8412H256.016V42.2822H267.112V43.5365H258.344V47.2519H265.996V48.4984Z" fill="#929292"/>
    <path d="M282.137 51.8168L287.182 42.2822H289.729L283.18 53.8412H281.118L274.582 42.2822H277.117L282.137 51.8168Z" fill="#929292"/>
    <path d="M308.246 48.4984H300.594V52.5948H309.483V53.8412H298.266V42.2822H309.362V43.5365H300.594V47.2519H308.246V48.4984Z" fill="#929292"/>
    <path d="M320.882 52.5948H329.25V53.8412H318.542V42.2822H320.882V52.5948Z" fill="#929292"/>
    <path d="M351.648 48.4348C351.648 49.5675 351.357 50.5572 350.775 51.404C350.193 52.2455 349.368 52.8886 348.301 53.3331C347.234 53.7777 345.989 54 344.566 54C343.176 54 341.943 53.7777 340.868 53.3331C339.792 52.8833 338.956 52.2455 338.357 51.4199C337.767 50.5889 337.464 49.6283 337.448 48.538V47.7045C337.448 46.593 337.743 45.6112 338.333 44.7591C338.923 43.907 339.756 43.256 340.831 42.8062C341.915 42.351 343.151 42.1234 344.542 42.1234C345.957 42.1234 347.202 42.3484 348.277 42.7982C349.36 43.2428 350.193 43.8912 350.775 44.7433C351.357 45.5901 351.648 46.5771 351.648 47.7045V48.4348ZM349.332 47.6886C349.332 46.3178 348.912 45.2672 348.071 44.5368C347.23 43.8012 346.054 43.4333 344.542 43.4333C343.071 43.4333 341.91 43.8012 341.062 44.5368C340.221 45.2672 339.788 46.2834 339.764 47.5854V48.4348C339.764 49.7633 340.188 50.8086 341.037 51.5707C341.894 52.3275 343.071 52.706 344.566 52.706C346.07 52.706 347.234 52.3487 348.059 51.6342C348.883 50.9144 349.308 49.885 349.332 48.546V47.6886Z" fill="#929292"/>
    <path d="M363.63 49.3161V53.8412H361.301V42.2822H367.813C369.746 42.2822 371.257 42.6051 372.349 43.2508C373.448 43.8964 373.998 44.7512 373.998 45.815C373.998 46.937 373.461 47.8024 372.385 48.411C371.318 49.0144 369.786 49.3161 367.789 49.3161H363.63ZM363.63 48.0697H367.813C369.058 48.0697 370.012 47.8791 370.675 47.4981C371.338 47.1117 371.67 46.556 371.67 45.8309C371.67 45.1429 371.338 44.5924 370.675 44.1796C370.012 43.7668 369.103 43.5524 367.947 43.5365H363.63V48.0697Z" fill="#929292"/>
    <path d="M393.11 48.4984H385.458V52.5948H394.347V53.8412H383.13V42.2822H394.226V43.5365H385.458V47.2519H393.11V48.4984Z" fill="#929292"/>
    <path d="M409.882 49.1652H405.734V53.8412H403.394V42.2822H409.239C411.228 42.2822 412.756 42.5786 413.823 43.1714C414.898 43.7641 415.436 44.6268 415.436 45.7594C415.436 46.4792 415.137 47.1064 414.538 47.641C413.948 48.1755 413.123 48.5751 412.064 48.8397L416.212 53.746V53.8412H413.714L409.882 49.1652ZM405.734 47.9188H409.312C410.468 47.9188 411.385 47.723 412.064 47.3313C412.752 46.9397 413.095 46.4157 413.095 45.7594C413.095 45.0449 412.768 44.4972 412.113 44.1161C411.466 43.735 410.528 43.5418 409.299 43.5365H405.734V47.9188Z" fill="#929292"/>
    </svg>
