<?xml version="1.0" encoding="iso-8859-1"?>
<!-- Uploaded to: SVG Repo, www.svgrepo.com, Generator: SVG Repo Mixer Tools -->
<svg fill="white" height="800px" width="800px" version="1.1" id="Layer_1" xmlns="http://www.w3.org/2000/svg" xmlns:xlink="http://www.w3.org/1999/xlink" 
	 viewBox="0 0 490.667 490.667" xml:space="preserve">
<g>
	<g>
		<path d="M245.333,0C172.928,0,96,22.421,96,64v192c0,42.027,75.115,64,149.333,64s149.333-21.973,149.333-64V64
			C394.667,22.421,317.739,0,245.333,0z M373.333,256c0,20.181-52.565,42.667-128,42.667s-128-22.485-128-42.667v-29.909
			c27.883,19.584,78.933,29.909,128,29.909s100.117-10.325,128-29.909V256z M373.333,192c0,17.813-48.704,42.667-128,42.667
			s-128-24.853-128-42.667v-29.909c27.883,19.584,78.933,29.909,128,29.909s100.117-10.325,128-29.909V192z M373.333,128
			c0,17.813-48.704,42.667-128,42.667s-128-24.853-128-42.667V98.091c27.883,19.584,78.933,29.909,128,29.909
			s100.117-10.325,128-29.909V128z M245.333,106.667c-79.296,0-128-24.853-128-42.667c0-17.813,48.704-42.667,128-42.667
			s128,24.853,128,42.667C373.333,81.813,324.629,106.667,245.333,106.667z"/>
	</g>
</g>
</svg>